<svg xmlns="http://www.w3.org/2000/svg" viewBox="0 0 580 140" role="img" aria-label="Sweet Savory Savor — bakery and café">
  <!-- lockup for dark surfaces (espresso canvas) -->
  <defs>
    <radialGradient id="sssd-esp" cx="36%" cy="28%" r="85%">
      <stop offset="0%" stop-color="#42291a"/>
      <stop offset="55%" stop-color="#26150c"/>
      <stop offset="100%" stop-color="#140b06"/>
    </radialGradient>
    <linearGradient id="sssd-rim" x1="0%" y1="0%" x2="100%" y2="100%">
      <stop offset="0%" stop-color="#f6d194"/>
      <stop offset="45%" stop-color="#dfa757"/>
      <stop offset="100%" stop-color="#b47f42"/>
    </linearGradient>
    <linearGradient id="sssd-pipe" x1="100%" y1="0%" x2="0%" y2="100%">
      <stop offset="0%" stop-color="#f4c987"/>
      <stop offset="100%" stop-color="#c98f4e"/>
    </linearGradient>
  </defs>
  <!-- mark -->
  <g transform="translate(14 18) scale(1.04)">
    <path d="M 50.00 6.00 A 11 11 0 0 1 69.09 10.36 A 11 11 0 0 1 84.40 22.57 A 11 11 0 0 1 92.90 40.21 A 11 11 0 0 1 92.90 59.79 A 11 11 0 0 1 84.40 77.43 A 11 11 0 0 1 69.09 89.64 A 11 11 0 0 1 50.00 94.00 A 11 11 0 0 1 30.91 89.64 A 11 11 0 0 1 15.60 77.43 A 11 11 0 0 1 7.10 59.79 A 11 11 0 0 1 7.10 40.21 A 11 11 0 0 1 15.60 22.57 A 11 11 0 0 1 30.91 10.36 A 11 11 0 0 1 50.00 6.00 Z"
          fill="url(#sssd-esp)" stroke="url(#sssd-rim)" stroke-width="2"/>
    <circle cx="50" cy="50" r="37.5" fill="none" stroke="url(#sssd-rim)" stroke-opacity="0.4" stroke-width="1"/>
    <path d="M62 35.5 C59.4 30 49.9 28.4 44.1 32.8 C38.3 37.2 40 44.7 48 48.1 C56.7 51.8 60.9 57 58.3 62.9 C55.4 69.6 44.3 70.1 39.6 63.3"
          fill="none" stroke="url(#sssd-pipe)" stroke-width="8" stroke-linecap="round"/>
    <circle cx="62" cy="35.5" r="5.2" fill="url(#sssd-pipe)"/>
    <circle cx="39.6" cy="63.3" r="5.2" fill="url(#sssd-pipe)"/>
    <circle cx="39.6" cy="63.3" r="2.7" fill="#d94f78"/>
  </g>
  <!-- wordmark -->
  <text x="150" y="68" font-family="Fraunces, Georgia, 'Times New Roman', serif" font-size="40" font-weight="800" fill="#f7ecdc">sweet savory savor</text>
  <text x="152" y="98" font-family="Manrope, Poppins, system-ui, 'Segoe UI', Roboto, sans-serif" font-size="13" font-weight="700" letter-spacing="4.5" fill="#dfa757">BAKERY &amp; CAFÉ</text>
</svg>
